<svg xmlns="http://www.w3.org/2000/svg" aria-hidden="true" style="position:absolute;width:0;height:0;overflow:hidden"><defs><symbol id="icon-background" viewBox="0 0 32 32"><path fill="#2196f3" d="M4 1h24a4 4 0 0 1 4 4v22a4 4 0 0 1-4 4H4a4 4 0 0 1-4-4V5a4 4 0 0 1 4-4z" style="fill:var(--color1, #2196f3)"/></symbol><symbol id="icon-airplane" viewBox="0 0 32 32"><path fill="#fff" d="M32 0 0 18l10.227 3.787L26 7 14.003 23.187l.009.003-.012-.003V32l5.735-6.691L27.002 28l4.999-28z" style="fill:var(--color2, #fff)"/></symbol><symbol id="icon-person_mark" viewBox="0 0 32 32"><path d="M16 16a5.333 5.333 0 1 0 0-10.666A5.333 5.333 0 1 0 16 16zm0 2.667c-3.561 0-10.667 1.787-10.667 5.333v1.333c0 .732.599 1.333 1.333 1.333h18.667c.732 0 1.333-.601 1.333-1.333V24c0-3.547-7.108-5.333-10.667-5.333z"/></symbol><symbol id="icon-phone_mark" viewBox="0 0 32 32"><path d="m24.882 19.774-3.268-.373a2.552 2.552 0 0 0-2.11.732l-2.368 2.368c-3.669-1.894-6.585-4.81-8.427-8.372l-.051-.108 2.382-2.377a2.552 2.552 0 0 0 .731-2.122l.001.012-.373-3.243a2.578 2.578 0 0 0-2.557-2.276H6.613c-1.454 0-2.663 1.209-2.574 2.661.683 10.987 9.47 19.762 20.444 20.444 1.452.089 2.663-1.12 2.663-2.574v-2.238a2.549 2.549 0 0 0-2.253-2.532l-.012-.001z"/></symbol><symbol id="icon-mail_mark" viewBox="0 0 32 32"><path d="M26.667 5.333H5.334A2.662 2.662 0 0 0 2.682 8l-.014 16c0 1.467 1.2 2.667 2.667 2.667h21.333c1.467 0 2.667-1.2 2.667-2.667V8c0-1.467-1.2-2.667-2.667-2.667zm-.534 5.668-9.426 5.892a1.343 1.343 0 0 1-1.421-.004l.006.003L5.866 11A1.133 1.133 0 1 1 7.07 9.083l-.004-.003 8.933 5.586 8.933-5.588a1.132 1.132 0 1 1 1.204 1.916l-.005.003z"/></symbol><symbol id="icon-check_blue" viewBox="0 0 32 32"><path fill="#2196f3" d="M4 1h24a4 4 0 0 1 4 4v22a4 4 0 0 1-4 4H4a4 4 0 0 1-4-4V5a4 4 0 0 1 4-4z" style="fill:var(--color1, #2196f3)"/><path fill="#fff" stroke="#fff" stroke-width=".4" d="m7.914 16.504-.138-.132-.138.13L5.71 18.33l.152.146 7.13 6.8.138-.132 15.16-14.462-.152-.144-1.902-1.814-.138.132-13.106 12.492-5.078-4.844z" style="fill:var(--color2, #fff);stroke:var(--color2, #fff)"/></symbol><symbol id="icon-check_mark" viewBox="0 0 32 32"><path fill="#fff" stroke="#fff" stroke-width=".492" d="m4.817 15.39-.17-.162-.17.16-2.373 2.25.187.18 8.775 8.369.17-.162L29.894 8.226l-.187-.177-2.341-2.233-.17.162-16.13 15.375-6.25-5.962z" style="fill:var(--color2, #fff);stroke:var(--color2, #fff)"/></symbol><symbol id="icon-border" viewBox="0 0 32 32"><path d="M28.444 4.334v23.332H3.556V4.334h24.888zm0-3.334H3.556C1.6 1 0 2.5 0 4.334v23.332C0 29.5 1.6 31 3.556 31h24.888C30.4 31 32 29.5 32 27.666V4.334C32 2.5 30.4 1 28.444 1z"/></symbol><symbol id="icon-company5" viewBox="0 0 32 32"><path fill="#afb1b8" d="M16.128 15.217a.882.882 0 0 1-.182-.602v.003-.871c0-.267.06-.469.182-.608s.329-.208.623-.207c.277 0 .474.059.59.177a.716.716 0 0 1 .174.52v.205h-.495v-.207a.987.987 0 0 0-.015-.203.195.195 0 0 0-.071-.12.28.28 0 0 0-.158-.048l-.022.001h.001l-.021-.001a.303.303 0 0 0-.168.051l.001-.001a.236.236 0 0 0-.082.131v.002a.949.949 0 0 0-.02.198v.018-.001 1.056a.539.539 0 0 0 .063.296.235.235 0 0 0 .097.071l.002.001a.259.259 0 0 0 .129.016h-.001a.267.267 0 0 0 .176-.048l-.001.001a.214.214 0 0 0 .074-.127v-.001c.011-.07.017-.141.015-.212v-.214h.495v.196a.792.792 0 0 1-.172.549l.001-.002c-.114.129-.308.194-.593.194s-.501-.069-.622-.213zm2.063.01c-.125-.136-.188-.333-.188-.594v-.916c0-.259.063-.454.188-.587s.334-.199.628-.198c.291 0 .499.066.625.198s.189.328.189.587v.915c0 .259-.063.457-.191.594s-.334.204-.622.204-.501-.069-.628-.203zm.858-.22a.507.507 0 0 0 .059-.271v-1.121l.001-.03a.503.503 0 0 0-.06-.238l.001.003a.234.234 0 0 0-.1-.072l-.002-.001a.274.274 0 0 0-.132-.016h.001a.29.29 0 0 0-.133.016l.002-.001a.232.232 0 0 0-.101.072.481.481 0 0 0-.059.266v1.126a.507.507 0 0 0 .059.271.332.332 0 0 0 .231.091.35.35 0 0 0 .13-.025l-.002.001a.32.32 0 0 0 .104-.067v-.005zm1.179-2.049h.533l.401 1.689.411-1.689h.519l.053 2.438h-.384l-.041-1.694-.396 1.694h-.308l-.41-1.701-.038 1.701h-.388l.048-2.438zm2.513 0h.831c.479 0 .718.231.718.692 0 .442-.252.663-.756.662h-.283v1.083h-.513l.003-2.438zm.71 1.042a.384.384 0 0 0 .282-.077.393.393 0 0 0 .074-.275v-.027a.778.778 0 0 0-.026-.2l.001.005a.177.177 0 0 0-.038-.067.211.211 0 0 0-.063-.048l-.001-.001a.527.527 0 0 0-.202-.04l-.028.001h.001-.199V14h.199zm1.578-1.042h.551l.565 2.438h-.478l-.112-.562h-.491l-.115.562h-.485l.565-2.438zm.471 1.594-.192-1.023-.192 1.023h.383zm1.101-1.594h.359l.687 1.391v-1.391h.426v2.438h-.341l-.691-1.452v1.452h-.44l.001-2.438zm2.469 1.508-.571-1.505h.481l.349.967.327-.967h.471l-.564 1.505v.93h-.492v-.93zm-12.15 1.996v.127h-.418v.991h-.175v-.991h-.421v-.127h1.014zm1.312 1.119h-.14a.06.06 0 0 1-.035-.011.059.059 0 0 1-.022-.025l-.121-.266h-.581l-.121.266a.067.067 0 0 1-.019.03.06.06 0 0 1-.035.011h-.138l.513-1.118h.178l.519 1.114zm-.849-.415h.484l-.205-.455a.725.725 0 0 1-.036-.1l-.001-.006-.019.059-.019.047-.203.454zm1.733.305a.582.582 0 0 0 .253-.033l.069-.027v-.251h-.207a.04.04 0 0 1-.026-.009.024.024 0 0 1-.008-.009c-.002-.003-.002-.006-.002-.01v-.087h.398v.429a.755.755 0 0 1-.211.09l-.005.001a.928.928 0 0 1-.128.023c-.05.005-.1.007-.15.007h-.007a.779.779 0 0 1-.257-.043l.006.002a.616.616 0 0 1-.206-.118l.001.001a.558.558 0 0 1-.131-.174l-.001-.003a.545.545 0 0 1-.047-.225v-.015c0-.082.017-.16.048-.231l-.001.004c.029-.066.075-.127.132-.177s.128-.09.205-.116a.959.959 0 0 1 .539-.004.626.626 0 0 1 .192.102l-.049.069a.046.046 0 0 1-.039.021.057.057 0 0 1-.032-.009l-.053-.028.003.002a.387.387 0 0 0-.065-.029l-.003-.001a.65.65 0 0 0-.09-.024l-.004-.001a.785.785 0 0 0-.123-.01H19.104a.601.601 0 0 0-.196.032l.004-.001a.445.445 0 0 0-.151.088.378.378 0 0 0-.094.136l-.001.003a.505.505 0 0 0 .002.376l-.001-.004a.43.43 0 0 0 .252.229.577.577 0 0 0 .203.022zm1.634-.018h.56v.127h-.731v-1.118h.175l-.004.991zm1.143.128h-.175v-1.118h.175v1.118zm.652-1.113a.09.09 0 0 1 .027.02l.75.843-.001-.02.001-.021v.001-.833h.153v1.123h-.094a.072.072 0 0 1-.033-.007h.001a.097.097 0 0 1-.027-.021l-.749-.842v.869h-.147v-1.118h.091c.01 0 .02.002.029.005zm2.221-.006v.123h-.621v.369h.504v.119h-.504v.382h.621v.123h-.802v-1.115h.802zM6.389 9.557l7.787 1.909v6.689l-7.787-1.908v-6.69zm-.5-.571v7.586l8.785 2.154v-7.585L5.889 8.986z" style="fill:var(--color3, #afb1b8)"/><path fill="#afb1b8" d="m10.597 22.247-8.786-2.156v-7.584l8.786 2.155v7.585zM6.035 9.47l7.685 1.885-3.269 2.823-7.686-1.886L6.034 9.47zm-.146-.484-4.078 3.52 8.786 2.155 4.077-3.521-8.785-2.155zm5.203 12.834 3.582-3.094-3.583-.878v3.973z" style="fill:var(--color3, #afb1b8)"/></symbol><symbol id="icon-company4" viewBox="0 0 32 32"><path fill="#afb1b8" d="M8.078 20.448a.431.431 0 0 1 .111.295l.001.022a.435.435 0 0 1-.041.184l.001-.003a.484.484 0 0 1-.131.168l-.001.001a.788.788 0 0 1-.446.138l-.054-.002h.002-.877v-1.869h.859a.776.776 0 0 1 .479.125l-.003-.002c.056.043.1.097.128.157s.042.127.038.193a.408.408 0 0 1-.1.286.476.476 0 0 1-.261.146.506.506 0 0 1 .296.16zm-1.029-.282h.367a.38.38 0 0 0 .233-.062.218.218 0 0 0 .062-.082l.001-.001a.197.197 0 0 0 .017-.082l-.001-.018v.001l.001-.016a.203.203 0 0 0-.018-.085l.001.001a.222.222 0 0 0-.061-.083.376.376 0 0 0-.211-.064l-.031.001h.001-.361v.491zm.637.717a.227.227 0 0 0 .067-.084l.001-.001a.216.216 0 0 0 .02-.09l-.001-.015v.001-.014a.222.222 0 0 0-.021-.093l.001.001a.25.25 0 0 0-.068-.086.399.399 0 0 0-.225-.068l-.026.001h.001-.385v.514h.39a.405.405 0 0 0 .246-.065zm2.146.369-.477-.731h-.18v.731h-.411v-1.869h.778a.81.81 0 0 1 .543.16l-.002-.002a.57.57 0 0 1 .186.416.562.562 0 0 1-.129.358l.001-.001a.645.645 0 0 1-.367.189H9.77l.509.747h-.447zm-.656-.985h.336c.233 0 .35-.094.35-.283v-.015a.259.259 0 0 0-.02-.1l.001.002a.276.276 0 0 0-.067-.097.385.385 0 0 0-.232-.077l-.034.001h.001-.34l.004.569zm2.903.608h-.819l-.145.376h-.431l.752-1.848h.466l.749 1.848h-.431l-.142-.376zm-.11-.282-.299-.789-.299.789h.598zm2.921.659h-.408l-.915-1.271v1.271h-.407v-1.869h.407l.915 1.279v-1.279h.408v1.869zm2.328-.447a.858.858 0 0 1-.369.33 1.269 1.269 0 0 1-.54.118h-.035.002-.726v-1.869h.76c.195 0 .381.042.548.119l-.008-.003a.838.838 0 0 1 .369.326 1.013 1.013 0 0 1 0 .981zm-.467-.045a.648.648 0 0 0 .18-.446.652.652 0 0 0-.18-.446.746.746 0 0 0-.513-.159h.002-.283v1.21h.283l.047.001c.176 0 .337-.06.466-.161l-.002.001zM12.334 8.986s5.264 1.82 5.153 4.453v4.454s-5.261-1.82-5.151-4.454l-.002-4.453zm9.843 7.865a7.638 7.638 0 0 1 3.345-1.128v-1.395c-1.383.488-2.557 1.374-3.345 2.523z" style="fill:var(--color3, #afb1b8)"/><path fill="#afb1b8" d="M21.579 17.271c.814-1.5 2.224-2.658 3.942-3.235v-4.018s-7.497 2.592-7.339 6.342v6.341s.334-.116.86-.333c0-.203 0-.407.024-.613.155-1.741 1.059-3.354 2.513-4.485z" style="fill:var(--color3, #afb1b8)"/><path fill="#afb1b8" d="M20.866 19.627c.039-.44.127-.875.262-1.298-.905.977-1.454 2.189-1.567 3.465-.011.12-.017.241-.02.365a21.05 21.05 0 0 0 1.563-.755l-.121.059a6.028 6.028 0 0 1-.117-1.836zm.299.022a5.798 5.798 0 0 0 .099 1.701l-.007-.037c2.048-1.122 4.35-2.856 4.261-4.952v-.183c-1.464.15-2.833.736-3.897 1.667a5.68 5.68 0 0 0-.455 1.782l-.002.022z" style="fill:var(--color3, #afb1b8)"/></symbol><symbol id="icon-company3" viewBox="0 0 32 32"><path d="M7.289 13.314h-.001c-.724 0-1.311.521-1.311 1.165v.001c0 .643.587 1.165 1.311 1.165h.001c.724 0 1.311-.522 1.311-1.165v-.001c0-.644-.587-1.165-1.311-1.165zm9.676-.372c-.002-.894-.402-1.75-1.113-2.382s-1.675-.988-2.68-.99c-1.006.002-1.97.357-2.681.989s-1.112 1.489-1.114 2.383v4.928s7.588-.751 7.589-4.927v-.001zM3.321 19.487c.002.622.281 1.218.775 1.657s1.165.687 1.864.689c.699-.002 1.37-.25 1.864-.689s.773-1.035.775-1.657v-3.429s-5.279.523-5.279 3.428zm2.639.614a.75.75 0 0 1-.384-.104.638.638 0 0 1-.253-.272l-.002-.004a.544.544 0 0 1-.038-.359l-.001.004c.027-.119.092-.229.189-.315a.717.717 0 0 1 .489-.18c.095 0 .186.017.27.048l-.005-.002c.127.047.234.125.31.226a.567.567 0 0 1 .065.577.62.62 0 0 1-.149.199l-.001.001a.752.752 0 0 1-.49.181h-.001v-.002zm5.336-.338h-.51v.526h-.265v-1.288h.839v.215h-.573v.333h.51v.214zm1.275-.089c0 .127-.022.238-.067.333a.508.508 0 0 1-.47.299h-.01.001a.515.515 0 0 1-.479-.293l-.001-.003a.746.746 0 0 1-.07-.318v-.012.001-.063c0-.127.023-.238.068-.334a.508.508 0 0 1 .481-.3c.108 0 .202.026.286.078.084.051.148.125.194.222s.069.207.069.333v.057zm-.268-.058a.545.545 0 0 0-.072-.308.236.236 0 0 0-.197-.105h-.011.001-.01a.237.237 0 0 0-.196.104l-.001.001a.53.53 0 0 0-.073.304v.063c0 .131.024.233.072.306s.118.109.209.109h.01a.232.232 0 0 0 .194-.104l.001-.001a.54.54 0 0 0 .072-.306v-.063zm1.129.335v-.007a.135.135 0 0 0-.053-.107.662.662 0 0 0-.191-.085 1.299 1.299 0 0 1-.226-.092l.008.004c-.146-.079-.219-.186-.219-.319 0-.069.019-.132.058-.186s.096-.098.169-.128a.652.652 0 0 1 .494.004.377.377 0 0 1 .227.348h-.266c0-.059-.018-.105-.056-.137s-.089-.049-.156-.049a.24.24 0 0 0-.151.042.13.13 0 0 0-.054.105v.003c0 .042.021.077.063.105s.105.055.187.079c.151.045.261.102.33.169s.104.151.104.251c0 .111-.042.199-.127.263s-.197.095-.34.095a.666.666 0 0 1-.271-.054.439.439 0 0 1-.186-.148l-.001-.001a.377.377 0 0 1-.063-.211v-.009h.266c0 .142.085.213.255.213a.255.255 0 0 0 .148-.038.127.127 0 0 0 .053-.103v-.005zm1.416-.735h-.394v1.073h-.266v-1.073h-.389v-.215h1.049v.215zm.926.515h-.509v.345h.598v.213H15v-1.288h.862v.215h-.596v.307h.51v.208zm.721.086h-.211v.472h-.265v-1.288h.479c.152 0 .27.034.352.102s.124.164.124.287a.395.395 0 0 1-.057.22.39.39 0 0 1-.17.139l-.003.001.278.526v.012h-.285l-.241-.471zm-.211-.215h.214a.226.226 0 0 0 .155-.05.183.183 0 0 0 .055-.131v-.01c0-.061-.017-.109-.052-.143s-.087-.052-.159-.052h-.213v.386zm1.608.233v.454h-.265v-1.288h.502c.097 0 .182.018.255.053a.397.397 0 0 1 .229.373c0 .126-.043.226-.13.299s-.206.109-.358.109h-.232zm0-.215h.237c.07 0 .124-.017.16-.049.037-.033.056-.08.056-.142v-.01a.212.212 0 0 0-.056-.144.206.206 0 0 0-.154-.06h-.243v.405zm1.678.111h-.509v.345h.598v.213h-.863v-1.288h.862v.215h-.596v.307h.51v.208zm1.232-.515h-.395v1.073h-.265v-1.073h-.389v-.215h1.049v.215zm.927.515h-.509v.345h.598v.213h-.863v-1.288h.862v.215h-.596v.307h.509v.208zm.721.086h-.211v.472h-.266v-1.288h.479c.152 0 .269.034.352.102s.124.164.124.287a.395.395 0 0 1-.057.22.39.39 0 0 1-.17.139l-.003.001.279.526v.012h-.285l-.241-.471zm-.212-.215h.214a.226.226 0 0 0 .155-.05.183.183 0 0 0 .055-.131v-.01c0-.061-.017-.109-.052-.143s-.087-.052-.158-.052h-.213v.386zm1.559.349v-.008a.134.134 0 0 0-.053-.107.662.662 0 0 0-.191-.085 1.299 1.299 0 0 1-.226-.092l.008.004c-.146-.079-.219-.186-.219-.319 0-.069.02-.132.058-.186s.096-.098.169-.128a.652.652 0 0 1 .494.004.377.377 0 0 1 .227.348h-.266c0-.059-.018-.105-.056-.137s-.089-.049-.156-.049a.24.24 0 0 0-.151.042.13.13 0 0 0-.054.105v.003c0 .042.021.077.063.105s.105.055.187.079c.151.045.261.102.33.169s.104.151.104.251c0 .111-.042.199-.127.263s-.198.095-.34.095a.666.666 0 0 1-.271-.054.439.439 0 0 1-.186-.148l-.001-.001a.377.377 0 0 1-.063-.211v-.009h.266c0 .142.085.213.255.213a.255.255 0 0 0 .148-.038.127.127 0 0 0 .053-.103v-.005z" /></symbol><symbol id="icon-company2" viewBox="0 0 32 32"><path fill="#afb1b8" d="M10.991 21.766c.005 0 .01.001.014.003l.012.007.066.063a.543.543 0 0 1-.185.12.713.713 0 0 1-.246.043h-.018.001a.688.688 0 0 1-.247-.04.511.511 0 0 1-.306-.284l-.001-.003a.565.565 0 0 1-.042-.218v-.019c0-.154.067-.292.173-.387a.602.602 0 0 1 .197-.114.782.782 0 0 1 .255-.04h.016c.079 0 .155.013.225.038l-.005-.001a.657.657 0 0 1 .177.101l-.055.067a.04.04 0 0 1-.014.012.038.038 0 0 1-.019.005h-.003a.048.048 0 0 1-.024-.007l-.029-.018-.041-.023a.497.497 0 0 0-.127-.04h-.003a.517.517 0 0 0-.091-.007h-.014a.536.536 0 0 0-.18.031l.004-.001a.432.432 0 0 0-.144.085.405.405 0 0 0-.127.305V21.457a.45.45 0 0 0 .035.176l-.001-.003a.382.382 0 0 0 .228.217.509.509 0 0 0 .169.029.855.855 0 0 0 .101-.006.399.399 0 0 0 .218-.093h-.001a.047.047 0 0 1 .031-.011zm1.901-.316v.007a.534.534 0 0 1-.046.219l.001-.003a.479.479 0 0 1-.123.172.563.563 0 0 1-.191.112l-.004.001a.799.799 0 0 1-.506-.002l.006.002a.585.585 0 0 1-.194-.114h.001a.511.511 0 0 1-.124-.171l-.001-.003a.572.572 0 0 1 .002-.449l-.001.004a.522.522 0 0 1 .125-.175.584.584 0 0 1 .193-.11.77.77 0 0 1 .506.001l-.006-.002c.073.026.139.064.194.113s.097.109.124.172c.03.072.046.148.044.224zm-.173 0v-.009a.475.475 0 0 0-.033-.173l.001.003a.37.37 0 0 0-.224-.217l-.003-.001a.599.599 0 0 0-.368.001l.004-.001a.378.378 0 0 0-.139.085.356.356 0 0 0-.088.131l-.001.002a.513.513 0 0 0 .002.361l-.001-.004a.37.37 0 0 0 .226.217l.003.001a.595.595 0 0 0 .364 0 .378.378 0 0 0 .139-.084.376.376 0 0 0 .088-.134.457.457 0 0 0 .031-.179zm1.47.188.018.04a.49.49 0 0 1 .041-.081l-.001.002.421-.664c.008-.011.016-.019.024-.021s.019-.004.029-.004h.13v1.081h-.147v-.828l-.001-.019.001-.02v.001l-.424.674a.062.062 0 0 1-.024.024.071.071 0 0 1-.036.009H14.194a.074.074 0 0 1-.036-.009.062.062 0 0 1-.024-.024l-.436-.678v.867h-.142V20.91h.13c.01 0 .02.001.03.004h-.001c.01.005.018.012.023.021l.43.665a.222.222 0 0 1 .021.037l.001.001zm1.583-.054v.405h-.164V20.91h.367a.787.787 0 0 1 .205.024.41.41 0 0 1 .145.067.275.275 0 0 1 .081.104l.001.002c.02.044.029.091.028.138v.007a.301.301 0 0 1-.119.239l-.001.001a.414.414 0 0 1-.146.071.678.678 0 0 1-.185.025h-.014l-.199-.003zm0-.116h.199a.463.463 0 0 0 .128-.016.272.272 0 0 0 .093-.047h-.001a.208.208 0 0 0 .076-.16v-.015a.177.177 0 0 0-.017-.077v.001a.206.206 0 0 0-.057-.073.35.35 0 0 0-.195-.059l-.027.001h.001-.199v.445zm2.212.522h-.132a.065.065 0 0 1-.034-.01.067.067 0 0 1-.022-.025l-.112-.261h-.562l-.116.261a.061.061 0 0 1-.056.035h-.132l.494-1.081h.171l.501 1.081zm-.815-.401h.464l-.196-.44a.766.766 0 0 1-.037-.101l-.019.056a.556.556 0 0 1-.018.046l-.194.439zm1.527-.674c.01.005.018.011.024.019l.72.815v-.839h.147v1.081h-.084a.066.066 0 0 1-.032-.007.086.086 0 0 1-.026-.02l-.719-.814.001.019-.001.019v-.001.803h-.147v-1.081h.087c.01 0 .02.002.03.005zm2.105.645v.429h-.165v-.429l-.455-.651h.151c.012 0 .023.003.032.009a.083.083 0 0 1 .022.024l.285.42.03.05a.368.368 0 0 1 .021.046l.021-.047a.343.343 0 0 1 .028-.049l.281-.423a.115.115 0 0 1 .021-.023.052.052 0 0 1 .032-.011h.152l-.456.654zm-6.694-2.464c.072.008.144.014.217.02 1.111-.432 2.05-1.138 2.701-2.031s.984-1.933.959-2.99l-1.224-1.063c.249 1.125.132 2.288-.336 3.359s-1.271 2.008-2.318 2.705z" style="fill:var(--color3, #afb1b8)"/><path fill="#afb1b8" d="m13.671 19.047.033.006c1.118-.695 1.97-1.666 2.447-2.786s.555-2.339.226-3.499l-1.743-1.515c.705 1.245.989 2.639.818 4.018s-.788 2.689-1.781 3.775zm5.912-3.703c-.296 1.161-1.016 2.209-2.051 2.987a6.52 6.52 0 0 1-.938.591l-.037.017c.843-.215 1.618-.596 2.266-1.113s1.149-1.156 1.467-1.868l-.707-.614z" style="fill:var(--color3, #afb1b8)"/><path fill="#afb1b8" d="m19.305 15.173-1.006-.875c-.019.997-.346 1.972-.945 2.822s-1.45 1.546-2.463 2.015h.005c.226 0 .451-.012.676-.035.947-.336 1.784-.87 2.435-1.556s1.098-1.5 1.299-2.371zm-5.489-4.559-1.201-1.045c-1.073.36-1.997.994-2.649 1.818s-1.003 1.8-1.006 2.8c.004 1.105.432 2.177 1.217 3.047s1.88 1.487 3.114 1.755c1.101-1.166 1.746-2.607 1.841-4.113s-.366-2.999-1.315-4.263zm8.264 4.398c-.004-1.311-.606-2.567-1.672-3.494s-2.513-1.449-4.022-1.453h-.012a6.4 6.4 0 0 0-2.072.343l.045-.013 7.352 6.389c.24-.52.38-1.129.38-1.771z" style="fill:var(--color3, #afb1b8)"/></symbol><symbol id="icon-company1" viewBox="0 0 32 32"><path fill="#afb1b8" d="M15.129 8.735h-.041c-.063-.004-.127-.005-.19-.007h-.137c-.12 0-.242.003-.363.009l-.014-.001-.014.001h.001a8.505 8.505 0 0 0-3.226.832l.051-.022-.13.063v6.684l.306-.104c.268-.092.554-.175.849-.252.73-.195 1.571-.313 2.437-.324h.007v.878a8.532 8.532 0 0 0-.322.009h-.025a9.848 9.848 0 0 0-1.948.304l.068-.015a9.488 9.488 0 0 0-2.289.898l.049-.025V9.09a8.778 8.778 0 0 1 2.288-.942l.062-.014a8.838 8.838 0 0 1 2.213-.286h.131c.154.004.305.011.446.021.372.026.741.085 1.103.176v.864a6.512 6.512 0 0 0-1.047-.16l-.022-.001-.022-.002c-.075-.006-.149-.013-.219-.013zm1.521.883c.192.015.39.022.591.022a9.49 9.49 0 0 0 2.395-.314l-.066.015a9.563 9.563 0 0 0 2.288-.898l-.049.025v8.42a8.778 8.778 0 0 1-2.288.942l-.062.014a8.8 8.8 0 0 1-2.213.285h-.056a6.772 6.772 0 0 1-1.672-.208l.047.01V9.456a7.036 7.036 0 0 0 1.086.163zm4.285.066-.305.103c-.281.095-.565.179-.849.254-.761.204-1.635.322-2.536.325h-.002c-.199 0-.383-.005-.56-.017l-.244-.016v6.876l.209.018c.194.017.394.026.596.026a8.08 8.08 0 0 0 2.055-.272l-.057.013a8.325 8.325 0 0 0 1.612-.583l-.05.022.13-.063V9.684zM10.789 20.592a.45.45 0 0 0-.324-.138h-.017.001-.007a.519.519 0 0 0-.193.038l.003-.001a.444.444 0 0 0-.25.251l-.001.003a.493.493 0 0 0-.035.19v1.145a.541.541 0 0 0 .045.235.406.406 0 0 0 .272.235.666.666 0 0 0 .171.024.484.484 0 0 0 .475-.482v-.128h-.3v.109a.261.261 0 0 1-.018.097l.001-.002a.194.194 0 0 1-.043.065.208.208 0 0 1-.125.044l-.018.001a.152.152 0 0 1-.123-.062.268.268 0 0 1-.04-.142v-.012.001-1.068a.362.362 0 0 1 .037-.171.155.155 0 0 1 .147-.069h-.001.006a.16.16 0 0 1 .128.064c.031.04.05.092.05.147V21.072h.296V20.95a.53.53 0 0 0-.038-.199l.001.004a.457.457 0 0 0-.1-.161zm1.778-.012a.52.52 0 0 0-.519-.094.47.47 0 0 0-.273.251l-.001.003a.543.543 0 0 0-.044.222v1.098a.529.529 0 0 0 .044.225.496.496 0 0 0 .453.283c.131 0 .25-.049.341-.129h-.001a.466.466 0 0 0 .113-.154.529.529 0 0 0 .044-.225v-1.109a.527.527 0 0 0-.045-.215l.001.003a.488.488 0 0 0-.113-.16zm-.14 1.48.001.017a.197.197 0 0 1-.06.142.217.217 0 0 1-.282-.001.197.197 0 0 1-.059-.16v.001-1.099l-.001-.017c0-.056.023-.106.06-.142a.217.217 0 0 1 .282.001c.037.036.06.086.06.142l-.001.018v-.001 1.099zm2.476.491v-2.08h-.288l-.378 1.101h-.005l-.381-1.101h-.285v2.079h.297v-1.265h.005l.291.894h.148l.293-.894h.005v1.265h.297zm1.688-1.934a.42.42 0 0 0-.168-.114.632.632 0 0 0-.204-.032h-.453v2.08h.296v-.812h.152a.537.537 0 0 0 .267-.057.436.436 0 0 0 .162-.157l.001-.002a.51.51 0 0 0 .068-.181c.01-.065.016-.141.016-.218v-.02.001c.003-.1-.007-.2-.029-.297a.447.447 0 0 0-.109-.191zm-.153.634a.252.252 0 0 1-.028.11l.001-.002a.163.163 0 0 1-.075.072h-.001a.296.296 0 0 1-.124.027h-.016.001-.135v-.707h.167a.29.29 0 0 1 .121.027l-.002-.001a.164.164 0 0 1 .069.076v.001a.31.31 0 0 1 .026.116v.138c0 .048.003.098 0 .143h-.003zm1.557-.78h-.243l-.458 2.08h.296l.087-.447h.404l.087.447h.296l-.469-2.08zm-.274 1.35.146-.754h.005l.145.754h-.296zm2.188-.097h-.005l-.447-1.253h-.285v2.08h.296V21.3h.006l.453 1.25h.279v-2.079h-.296v1.253zm1.811-1.253-.238.827h-.006l-.238-.827h-.313l.407 1.201v.879h.296v-.879l.407-1.201h-.314zM9.962 23.138h.143v.401h.097v-.401h.142v-.082h-.382v.082zm1.201-.082-.187.483h.103l.04-.11h.193l.041.11h.106l-.192-.483h-.103zm-.015.292.066-.179.066.179h-.131zm1.202.013h.112v.062a.19.19 0 0 1-.115.041h-.007a.123.123 0 0 1-.096-.046.204.204 0 0 1-.036-.115v-.011.001c0-.107.046-.161.139-.161l.01-.001c.048 0 .088.033.099.077v.001l.095-.019c-.021-.094-.088-.142-.205-.142h-.006a.246.246 0 0 0-.163.062.236.236 0 0 0-.069.187v-.001.011c0 .065.024.124.062.17a.233.233 0 0 0 .168.071h.016-.001.008a.289.289 0 0 0 .197-.077v-.19h-.209v.081zm1.212-.305h-.098v.483h.338v-.082h-.24v-.401zm1.025 0h-.098v.483h.098v-.483zm1.001.322-.198-.322h-.095v.483h.091v-.315l.194.315h.097v-.483h-.09v.323zm.906-.052h.241v-.082h-.241v-.106h.259v-.082h-.357v.483h.366v-.082h-.269v-.131zm2.196-.08h-.19v-.19h-.097v.483h.097v-.211h.19v.211h.097v-.483h-.097v.191zm.912.08h.241v-.082h-.241v-.106h.26v-.082h-.356v.483h.366v-.082h-.269v-.131zm1.235 0c.084-.013.127-.058.127-.134l.001-.014a.116.116 0 0 0-.048-.094.274.274 0 0 0-.122-.029l-.02.001h.001-.205v.483h.097v-.202h.027c.019 0 .037.004.053.011h-.001a.103.103 0 0 1 .034.035l.105.153h.116l-.059-.094a.345.345 0 0 0-.106-.115l-.001-.001zm-.098-.067h-.072v-.121h.076l.02-.001c.028 0 .055.005.08.013h-.002a.064.064 0 0 1 .021.047c0 .021-.01.039-.025.051a.26.26 0 0 1-.081.012l-.019-.001h.001zm1.03.067h.24v-.082h-.24v-.106h.26v-.082h-.357v.483h.366v-.082h-.269v-.131z" style="fill:var(--color3, #afb1b8)"/></symbol><symbol id="icon-company" viewBox="0 0 32 32"><path fill="#afb1b8" d="m11.472 9.057 2.116 2.003-3.927-.002v9.717h10.264V17.06l2.113 2.001V9.058H11.472zm8.36 7.767-5.998-5.678h5.998v5.678zm-1.863 2.528h-6.685v-6.535h.472v6.092h6.212v.442zm-5.106 2.716-.247.509-.247-.509h-.207l.36.678v.395h.187v-.395l.36-.678h-.206zm.311 1.073.087-.25h.416l.088.25h.195l-.406-1.073h-.168l-.405 1.073h.194zm.294-.845.155.445h-.311l.155-.445zm.984.419a.243.243 0 0 0-.04.134v.002c0 .091.032.164.095.22s.149.084.255.084a.445.445 0 0 0 .274-.086l.06.072h.208l-.158-.187a.537.537 0 0 0 .093-.325h-.155a.43.43 0 0 1-.045.197l-.207-.245.073-.053a.388.388 0 0 0 .11-.111l.001-.001a.238.238 0 0 0 .034-.122v-.006a.222.222 0 0 0-.075-.166.27.27 0 0 0-.181-.07h-.011.001c-.086 0-.155.025-.206.074s-.077.115-.077.199c0 .034.008.07.024.107s.046.081.088.134a.638.638 0 0 0-.16.148zm.484.237a.27.27 0 0 1-.169.06h-.009a.178.178 0 0 1-.12-.047.16.16 0 0 1-.048-.115v-.006c0-.057.03-.109.088-.153l.023-.016.234.277zm-.192-.475c-.051-.063-.076-.114-.076-.155 0-.036.011-.066.031-.089a.105.105 0 0 1 .079-.036H14.787c.03 0 .056.012.076.03.021.02.032.044.032.072v.004c0 .04-.018.076-.046.1l-.023.018-.082.056zm1.746.583a.388.388 0 0 0 .127-.268h-.186c-.01.077-.033.131-.07.164s-.092.049-.165.049c-.08 0-.141-.03-.183-.091s-.062-.149-.062-.266v-.095c.001-.115.023-.201.066-.26s.106-.089.187-.089c.07 0 .123.017.159.051s.059.09.068.167h.186c-.012-.117-.054-.208-.126-.273s-.168-.097-.286-.097a.433.433 0 0 0-.233.063.414.414 0 0 0-.153.176l-.001.003a.622.622 0 0 0-.054.255v.013-.001.1c.002.099.02.185.055.26s.086.132.15.173c.065.04.141.06.226.06.122 0 .22-.032.294-.096zm1.096-.15a.668.668 0 0 0 .055-.277V22.563a.651.651 0 0 0-.058-.268l.002.004a.413.413 0 0 0-.155-.18l-.002-.001c-.068-.042-.145-.063-.232-.063s-.165.021-.233.064a.414.414 0 0 0-.157.184.646.646 0 0 0-.055.264v.014-.001.06c.001.103.019.193.056.272s.09.139.158.182a.435.435 0 0 0 .233.063c.088 0 .166-.021.233-.063s.12-.104.156-.183zm-.199-.607a.47.47 0 0 1 .068.274v.056c0 .121-.022.213-.067.276s-.107.095-.19.095h-.008a.222.222 0 0 1-.183-.096v-.001a.463.463 0 0 1-.069-.273v-.062a.46.46 0 0 1 .069-.267.22.22 0 0 1 .182-.095h.008a.22.22 0 0 1 .191.095z" style="fill:var(--color3, #afb1b8)"/></symbol><symbol id="icon-linkedin" viewBox="0 0 32 32"><path d="M31.992 32H32V20.262c0-5.741-1.237-10.163-7.947-10.163-3.227 0-5.392 1.77-6.277 3.45h-.093v-2.914h-6.365v21.363h6.627V21.42c0-2.786.528-5.48 3.978-5.48 3.398 0 3.448 3.179 3.448 5.658V32h6.621zM.528 10.635h6.635V32H.528V10.635zM3.843 0A3.843 3.843 0 0 0 0 3.843c0 2.12 1.722 3.878 3.843 3.878 2.12 0 3.842-1.757 3.842-3.878S5.965.002 3.844 0z" /></symbol><symbol id="icon-facebook" viewBox="0 0 32 32"><path d="M21.328 5.312h2.923V.224A36.483 36.483 0 0 0 20.143 0h-.156.008c-4.213 0-7.099 2.65-7.099 7.52V12H8.25v5.688h4.646V32h5.699V17.69h4.459l.707-5.688h-5.168V8.08c0-1.643.443-2.768 2.734-2.768z" /></symbol><symbol id="icon-instagram" viewBox="0 0 32 32"><path d="M31.968 9.408c-.074-1.701-.349-2.869-.742-3.882a7.839 7.839 0 0 0-1.85-2.837l-.001-.001A7.906 7.906 0 0 0 26.597.861l-.054-.018C25.524.449 24.362.176 22.661.101 20.949.019 20.405 0 16.059 0c-4.344 0-4.888.019-6.595.094-1.699.074-2.869.349-3.88.742a7.847 7.847 0 0 0-2.839 1.85l-.001.001A7.9 7.9 0 0 0 .919 5.465l-.018.054C.506 6.538.232 7.7.157 9.401c-.082 1.712-.101 2.256-.101 6.602 0 4.344.019 4.888.094 6.595.075 1.701.35 2.869.744 3.882a7.915 7.915 0 0 0 1.849 2.837l.001.001c.8.813 1.77 1.443 2.832 1.843 1.019.395 2.182.67 3.882.744 1.707.075 2.251.094 6.595.094 4.346 0 4.89-.019 6.595-.094 1.701-.074 2.869-.349 3.882-.742a8.237 8.237 0 0 0 4.664-4.628l.019-.055c.394-1.019.669-2.182.744-3.882.075-1.707.093-2.251.093-6.595s-.006-4.888-.08-6.595zm-2.88 13.066c-.07 1.563-.333 2.406-.55 2.97a5.341 5.341 0 0 1-3.004 3.024l-.036.012c-.56.219-1.411.482-2.968.55-1.688.075-2.194.094-6.464.094-4.269 0-4.782-.019-6.464-.094-1.563-.069-2.406-.331-2.97-.55a4.953 4.953 0 0 1-1.836-1.192l-.001-.001a4.978 4.978 0 0 1-1.184-1.803L3.6 25.45c-.218-.563-.48-1.413-.549-2.97-.075-1.688-.094-2.195-.094-6.464 0-4.27.019-4.784.094-6.464.069-1.563.331-2.406.549-2.97a4.897 4.897 0 0 1 1.198-1.837l.002-.002a4.972 4.972 0 0 1 1.806-1.182l.034-.011c.56-.219 1.411-.48 2.968-.55 1.688-.074 2.195-.093 6.464-.093 4.275 0 4.782.019 6.464.093 1.563.069 2.406.331 2.97.55a4.91 4.91 0 0 1 1.837 1.194c.531.52.938 1.144 1.195 1.84.218.56.48 1.411.549 2.968.075 1.688.094 2.194.094 6.464 0 4.269-.019 4.768-.094 6.458z" /><path d="M16.059 7.782a8.223 8.223 0 0 0-8.219 8.221 8.223 8.223 0 0 0 16.442.008v-.009a8.223 8.223 0 0 0-8.221-8.221zm0 13.552a5.333 5.333 0 0 1 .001-10.666h.001a5.334 5.334 0 1 1 0 10.668zM26.525 7.458a1.92 1.92 0 0 1-3.84 0 1.92 1.92 0 0 1 3.84 0z" /></symbol><symbol id="icon-twitter" viewBox="0 0 32 32"><path d="M32 6.078c-1.1.493-2.376.857-3.713 1.028l-.068.007a6.556 6.556 0 0 0 2.873-3.579l.013-.046a12.88 12.88 0 0 1-4.076 1.573l-.084.014A6.558 6.558 0 0 0 15.6 9.557v.004c0 .52.043 1.021.152 1.496-5.454-.266-10.28-2.88-13.522-6.861a6.524 6.524 0 0 0-.902 3.313v.001a6.57 6.57 0 0 0 2.914 5.451 6.453 6.453 0 0 1-2.994-.823l.033.017v.072a6.592 6.592 0 0 0 5.213 6.44l.043.008a6.403 6.403 0 0 1-1.662.215h-.061.003c-.419 0-.843-.024-1.242-.112.85 2.598 3.261 4.509 6.13 4.57a13.093 13.093 0 0 1-8.122 2.8H1.57h.001-.062c-.531 0-1.055-.034-1.569-.099l.061.006c2.826 1.846 6.287 2.944 10.004 2.944h.063-.003c12.072 0 18.672-10 18.672-18.669 0-.288-.01-.57-.024-.848a13.203 13.203 0 0 0 3.258-3.355l.03-.047z" /></symbol><symbol id="icon-astronaut" viewBox="0 0 32 32"><path fill="#2196f3" d="M31.974 4.524a.535.535 0 0 0-.427-.362h-.003l-1.911-.278-.855-1.731c-.179-.365-.777-.365-.956 0l-.855 1.731-1.911.278a.534.534 0 0 0-.296.91l1.383 1.348-.326 1.903a.532.532 0 0 0 .774.562l1.709-.899 1.709.899a.534.534 0 0 0 .773-.565v.003l-.326-1.903 1.383-1.348a.535.535 0 0 0 .134-.55l.001.004zm-2.463 1.327a.53.53 0 0 0-.153.472l.191 1.114-1-.526a.525.525 0 0 0-.501.001l.003-.001-1 .526.191-1.114a.53.53 0 0 0-.152-.472l-.811-.79 1.119-.162a.532.532 0 0 0 .402-.292l.5-1.013.5 1.013a.532.532 0 0 0 .402.292l1.119.162-.809.79zm-3.377 14.671h-1.067v1.067h1.067v-1.067zm0 2.134h-1.067v1.066h1.067v-1.066zm1.066-1.067h-1.067v1.067H27.2v-1.067zm-2.133 0H24v1.067h1.067v-1.067zm-2.667 4.8h-1.067v1.067H22.4v-1.067zm0 2.134h-1.067v1.067H22.4v-1.067zm1.067-1.067H22.4v1.067h1.067v-1.067zm-2.133 0h-1.067v1.067h1.067v-1.067zM16 24.256h-1.066v1.067H16v-1.067zm0 2.133h-1.066v1.067H16v-1.067zm1.067-1.067H16v1.067h1.067v-1.067zm-2.133 0h-1.067v1.067h1.067v-1.067zm-9.067-19.2H4.801v1.066h1.066V6.122zm0 2.134H4.801v1.066h1.066V8.256zm1.066-1.067H5.866v1.067h1.066V7.189zm-2.133 0H3.733v1.067H4.8V7.189z" style="fill:var(--color1, #2196f3)"/><path fill="#212121" d="M24.715 14.16a1.774 1.774 0 0 0-1.179-.703l-.009-.001a1.769 1.769 0 0 0-1.344.355l.004-.003-1.253.96-1.898 1.417-1.358-.541c2.421-1.086 4.113-3.508 4.113-6.32 0-3.823-3.122-6.934-6.961-6.934S7.869 5.5 7.869 9.324c0 1.386.415 2.674 1.12 3.759l-2.768-.024c-.009 0-.016.005-.023.005a.511.511 0 0 0-.159.033l.004-.001c-.013.005-.026.007-.038.013-.006.003-.013.003-.019.006l-3.233 1.596-.001.001-1.893.91a.5.5 0 0 0-.065.036l.001-.001a1.782 1.782 0 0 0-.594 2.306l-.005-.01c.22.424.592.742 1.043.885l.013.003a1.772 1.772 0 0 0 1.388-.133l-.009.005 1.388-.738 2.264-1.169 1.357-.008-5.442 5.415-.001.001-1.339 1.333a1.643 1.643 0 0 0-.491 1.173v.005a1.668 1.668 0 0 0 1.667 1.664h.002a1.67 1.67 0 0 0 1.18-.485l1.314-1.309 1.741-1.3.901.897L4.07 27.28a1.643 1.643 0 0 0-.491 1.173v.004a1.662 1.662 0 0 0 1.666 1.664h.003a1.67 1.67 0 0 0 1.18-.485l4.488-4.472c.007-.006.016-.009.022-.016l5.166-5.658 3.471.494a.474.474 0 0 0 .262-.032c.017-.006.032-.015.049-.023.019-.01.039-.015.058-.027l3.213-2.133c.012-.008.018-.021.029-.03.013-.01.029-.014.041-.026l1.271-1.191c.348-.326.564-.787.564-1.3 0-.4-.132-.769-.355-1.066l.003.005zM2.13 17.77a.706.706 0 0 1-.564.05l.005.001a.717.717 0 0 1-.215-1.258l.002-.001 1.314-.632.316.924.133.389-.992.527zm3.497-1.828-1.548.8-.255-.746-.184-.537 2.027-1.001-.04 1.484zm15.1-6.62c0 .918-.219 1.785-.599 2.56l-4.181-1.899a1.865 1.865 0 0 0-.782-1.384l-.006-.004 1.464-4.861c2.377.757 4.104 2.975 4.104 5.588zm-11.789 0c0-3.235 2.644-5.867 5.894-5.867.253 0 .5.022.745.053l-1.432 4.753c-.019 0-.037-.006-.057-.006h-.001a1.872 1.872 0 0 0-1.872 1.867 1.873 1.873 0 0 0 1.872 1.867h.001c.695 0 1.295-.383 1.618-.944l3.863 1.755a5.891 5.891 0 0 1-4.737 2.39c-3.25 0-5.894-2.632-5.894-5.867zm5.957.8c0 .441-.362.8-.806.8h-.001a.804.804 0 0 1-.804-.8c0-.441.361-.8.806-.8s.806.359.806.8zM2.464 25.146a.606.606 0 0 1-.855.001.591.591 0 0 1 0-.844l.962-.959.852.848-.959.954zm3.214 3.734a.606.606 0 0 1-.855.001.591.591 0 0 1 0-.844l.963-.959.852.848-.96.955zm3.482-3.469-.001.001-1.765 1.76-.852-.848 1.765-1.757a.527.527 0 0 0 .09-.136c.007-.014.02-.026.026-.04.016-.041.019-.085.026-.128.003-.025.014-.048.014-.073 0-.035-.013-.07-.02-.105-.006-.032-.006-.064-.019-.096a.536.536 0 0 0-.092-.138c-.01-.012-.014-.026-.025-.038h-.001l-.001-.002-1.607-1.6c-.017-.017-.039-.024-.058-.038a.491.491 0 0 0-.084-.056l-.003-.001a.527.527 0 0 0-.09-.031l-.003-.001a.502.502 0 0 0-.101-.02h-.025a.603.603 0 0 0-.075.005h.003c-.036.005-.069.009-.104.021s-.064.027-.094.045c-.02.011-.043.015-.061.029l-1.774 1.324-.901-.897 2.399-2.386 4.36 4.289-.928.919zm6.819-7.017c-.016-.002-.03.004-.046.003l-.027-.001a.562.562 0 0 0-.092.008h.003a.484.484 0 0 0-.187.07l.002-.001a.492.492 0 0 0-.083.061c-.013.011-.028.016-.04.029l-4.698 5.146-4.328-4.256 2.833-2.818a.535.535 0 0 0-.378-.911h-.002l-2.219.013.028-1.607 3.104.027a6.928 6.928 0 0 0 4.978 2.101h.003c.438 0 .864-.046 1.28-.122.04.032.08.064.129.085l2.41.96.152.758.178.886-3.003-.427zm4.041.178-.313-1.558 1.446-1.08.946 1.257-2.08 1.381zm3.753-2.831-.837.785-.931-1.236.831-.637a.735.735 0 0 1 .543-.143.718.718 0 0 1 .621.71.71.71 0 0 1-.226.521z" style="fill:var(--color4, #212121)"/><path fill="#212121" d="m13.602 18.544-2.143-2.134a.53.53 0 0 0-.752 0l-2.143 2.133a.535.535 0 0 0 0 .756l2.142 2.134a.53.53 0 0 0 .752 0l2.143-2.134a.532.532 0 0 0 0-.756zm-2.519 1.759-1.387-1.381 1.386-1.381 1.387 1.381-1.387 1.381zm6.081-15.232-.258 1.036c.071.018 1.738.452 1.738 2.149h1.067c0-2.017-1.666-2.965-2.547-3.184zm2.547 4.251h-1.067v1.066h1.067V9.322z" style="fill:var(--color4, #212121)"/></symbol><symbol id="icon-diagram" viewBox="0 0 32 32"><path fill="#2196f3" d="M14.926 14.965h1.066v4.798h-1.066v-4.798zm4.264 2.132h1.066v2.665H19.19v-2.665zm-8.529 1.599h1.066v1.066h-1.066v-1.066zm-3.198-.533h1.066v1.599H7.463v-1.599z" style="fill:var(--color1, #2196f3)"/><path fill="#212121" d="M1.599 28.291h25.586a1.6 1.6 0 0 0 1.599-1.599V24.56a1.6 1.6 0 0 0-1.599-1.599h-.533V9.667l3.028-2.868a1.608 1.608 0 1 0-.742-.752l-.004-.01-2.281 2.162v-1.23a1.6 1.6 0 0 0-1.599-1.599H3.731a1.6 1.6 0 0 0-1.599 1.599v15.992h-.533A1.6 1.6 0 0 0 0 24.56v2.132a1.6 1.6 0 0 0 1.599 1.599zM30.384 4.837a.533.533 0 0 1 0 1.066.533.533 0 0 1 0-1.066zM3.198 6.969c0-.294.239-.533.533-.533h21.323c.294 0 .533.239.533.533v2.239l-1.066 1.013V8.036a.534.534 0 0 0-.534-.534H4.798a.534.534 0 0 0-.534.533v13.327c0 .294.239.533.534.533h19.189a.534.534 0 0 0 .534-.533v-9.675l1.066-1.01V22.96H3.198V6.969zm4.798 6.93h-.005a1.6 1.6 0 1 0 1.112 2.748l1.853.93a.535.535 0 0 0 .636-.122l3.939-4.432 3.872 2.902a.534.534 0 0 0 .686-.039l3.365-3.188v8.131H5.331V8.568h18.123v2.661l-3.771 3.572-3.904-2.927a.534.534 0 0 0-.718.071v.001l-3.993 4.493-1.493-.746c.011-.064.017-.128.02-.193a1.6 1.6 0 0 0-1.599-1.599zm.533 1.599a.533.533 0 0 1-1.066 0 .533.533 0 0 1 1.066 0zm3.198 8.528h5.33v.533a.533.533 0 0 1-.533.533h-4.265a.533.533 0 0 1-.533-.533v-.533zm-10.66.534c0-.294.238-.533.533-.533h9.062v.533a1.6 1.6 0 0 0 1.599 1.599h4.265a1.6 1.6 0 0 0 1.599-1.599v-.533h9.062c.294 0 .533.239.533.533v2.132a.533.533 0 0 1-.533.533H1.601a.533.533 0 0 1-.533-.533V24.56z" style="fill:var(--color4, #212121)"/></symbol><symbol id="icon-clock" viewBox="0 0 32 32"><path fill="#212121" d="M31.296 15.301C31.295 6.849 24.441-.002 15.988 0S.685 6.855.687 15.308c.002 6.788 4.422 12.543 10.541 14.545l.108.031a.667.667 0 0 0 .529-.065.636.636 0 0 0 .283-.357l3.865-12.25a1.913 1.913 0 1 0-.852-3.63l.011-.005-5.106-5.107a.638.638 0 0 0-.902.902l5.103 5.109a1.847 1.847 0 0 0-.191.826c0 .602.283 1.137.723 1.48l.004.003-3.682 11.673C3.843 25.782.117 17.709 2.797 10.431S13.551-.573 20.829 2.108c7.278 2.681 11.004 10.754 8.323 18.032-1.345 3.581-4.003 6.406-7.374 7.938l-.088.036-.398-1.874a.639.639 0 0 0-1.05-.343l.001-.001-3.837 3.426a.637.637 0 0 0 .227 1.083l.005.001 4.899 1.563a.637.637 0 0 0 .818-.744l.001.004-.391-1.839c5.528-2.374 9.329-7.772 9.329-14.057v-.034.002zm-15.304-.637a.638.638 0 0 1 0 1.276.638.638 0 0 1 0-1.276zm2.1 14.864 2.184-1.948.603 2.84-2.787-.892z" style="fill:var(--color4, #212121)"/><path fill="#2196f3" d="M15.354 3.185V4.46a.638.638 0 0 0 1.276 0V3.185a.638.638 0 1 0-1.276 0zM3.876 14.664a.638.638 0 0 0 0 1.276h1.275a.638.638 0 0 0 0-1.276H3.876zm24.232 1.275a.638.638 0 0 0 0-1.276h-1.275a.638.638 0 0 0 0 1.276h1.275z" style="fill:var(--color1, #2196f3)"/></symbol><symbol id="icon-antenna" viewBox="0 0 32 32"><path fill="#212121" d="m30.773 22.098-8.443-8.505.937-4.616c.225.09.485.144.758.146h.033a2.16 2.16 0 1 0-2.029-1.42l-.005-.015-4.96.606L8.973.161a.53.53 0 0 0-.376-.16.536.536 0 0 0-.373.155L6.712 1.66a.535.535 0 0 0 0 .754l.814.825C6.383 5.301 5.71 7.761 5.71 10.378c0 4.106 1.656 7.824 4.336 10.525l-.001-.001a.49.49 0 0 0 .146.097 2.986 2.986 0 0 0-.052.546v6.188h-6.4a2.669 2.669 0 0 0-2.667 2.666v1.067c0 .295.239.534.534.534H26.14a.534.534 0 0 0 .533-.534v-1.067a2.67 2.67 0 0 0-2.666-2.666h-6.4v-2.742a14.784 14.784 0 0 0 10.166-1.502l-.077.039.818.823a.534.534 0 0 0 .376.16.536.536 0 0 0 .373-.155l1.512-1.504a.535.535 0 0 0 0-.754zM23.28 6.233a1.067 1.067 0 1 1 .752 1.822h-.004a1.066 1.066 0 0 1-.747-1.822h-.002zm-1.256 3.504-.598 2.946-1.175-1.183 1.774-1.763zm-.605-.902-1.92 1.909-1.486-1.493 3.406-.416zM24.004 28.8a1.6 1.6 0 0 1 1.6 1.6v.534H2.138V30.4a1.6 1.6 0 0 1 1.6-1.6h20.267zm-7.466-2.134v1.067h-5.334v-1.067h5.334zM11.204 25.6v-4.053c0-1.294 1.196-2.346 2.667-2.346s2.667 1.053 2.667 2.346V25.6h-5.334zm6.4-1.696v-2.357c0-1.882-1.675-3.413-3.733-3.413h-.058c-1.353 0-2.54.707-3.213 1.771l-.009.016a13.817 13.817 0 0 1-3.812-9.55c0-2.314.567-4.496 1.569-6.414l-.036.077 18.602 18.709c-1.823.947-3.979 1.502-6.266 1.502-1.079 0-2.128-.124-3.136-.357l.093.018zm11.289-.684L7.836 2.039l.754-.752 7.935 7.98c.004 0 .006.007.01.01l13.114 13.191-.757.752z" style="fill:var(--color4, #212121)"/><path fill="#2196f3" d="M13.876 20.267h-.007a1.6 1.6 0 0 0-.003 3.2h.007a1.6 1.6 0 0 0 .002-3.2zm.373 1.978a.534.534 0 1 1-.378-.912.533.533 0 0 1 .374.911h.005z" style="fill:var(--color1, #2196f3)"/></symbol><symbol id="icon-envelope" viewBox="0 0 32 32"><path d="M29 4H3C1.346 4 0 5.346 0 7v18c0 1.654 1.346 3 3 3h26c1.654 0 3-1.346 3-3V7c0-1.654-1.346-3-3-3zm0 2c.136 0 .266.028.384.078L16 17.678 2.616 6.078A.971.971 0 0 1 3 6h26zm0 20H3a1 1 0 0 1-1-1V8.19l13.344 11.566a.997.997 0 0 0 1.313-.001l-.001.001L30 8.19V25a1 1 0 0 1-1 1z" /></symbol><symbol id="icon-smartphone" viewBox="0 0 32 32"><path d="M23 0H9C7.346 0 6 1.346 6 3v26c0 1.654 1.346 3 3 3h14c1.654 0 3-1.346 3-3V3c0-1.654-1.346-3-3-3zM9 2h14a1 1 0 0 1 1 1v21H8V3a1 1 0 0 1 1-1zm14 28H9a1 1 0 0 1-1-1v-3h16v3a1 1 0 0 1-1 1z" /><path fill="#757575" d="M10.708 27.478a.889.889 0 0 1 .001 1.319l-.001.001a1.048 1.048 0 0 1-1.417 0l.001.001a.889.889 0 0 1-.001-1.319l.001-.001a1.048 1.048 0 0 1 1.417 0l-.001-.001z" /></symbol><symbol id="icon-close" viewBox="0 0 32 32"><path d="m26.667 7.303-1.97-1.97-7.808 7.808-7.808-7.808-1.97 1.97 7.808 7.808-7.808 7.808 1.97 1.97 7.808-7.808 7.808 7.808 1.97-1.97-7.808-7.808 7.808-7.808z"/></symbol></defs></svg>